<svg width="90" height="15" viewBox="0 0 90 15" fill="none" xmlns="http://www.w3.org/2000/svg">
<g clip-path="url(#clip0_351_14)">
<path d="M19.4 5.6001H18V11.6001H19.4V5.6001Z" fill="white"/>
<path d="M18.7999 3.2002C18.5999 3.2002 18.3999 3.3002 18.1999 3.4002C17.9999 3.6002 17.8999 3.7002 17.8999 4.0002C17.8999 4.2002 17.9999 4.4002 18.0999 4.6002C18.2999 4.8002 18.4999 4.8002 18.6999 4.8002C18.8999 4.8002 19.0999 4.7002 19.2999 4.6002C19.4999 4.5002 19.4999 4.3002 19.4999 4.0002C19.4999 3.8002 19.3999 3.6002 19.2999 3.4002C19.1999 3.3002 18.9999 3.2002 18.7999 3.2002Z" fill="white"/>
<path d="M25.9 4C25.3 3.7 24.6 3.5 23.8 3.5H22.4H21.6H21V11.6H21.7H22.5H23.8C24.6 11.6 25.3 11.4 25.9 11.1C26.5 10.8 26.9 10.3 27.3 9.7C27.6 9.1 27.8 8.4 27.8 7.5C27.8 6.7 27.6 5.9 27.3 5.3C27 4.7 26.4 4.3 25.9 4ZM25.9 9.1C25.7 9.5 25.4 9.8 25 10C24.6 10.2 24.1 10.3 23.6 10.3H22.4V4.7H23.7C24.3 4.7 24.7 4.8 25.1 5C25.5 5.2 25.8 5.5 26 5.9C26.2 6.3 26.3 6.8 26.3 7.4C26.2 8.2 26.1 8.7 25.9 9.1Z" fill="white"/>
<path d="M33.4999 6.3C33.1999 6 32.8999 5.9 32.5999 5.7C32.2999 5.6 31.8999 5.5 31.4999 5.5C30.8999 5.5 30.3999 5.6 29.9999 5.9C29.5999 6.2 29.1999 6.5 28.9999 7C28.7999 7.5 28.5999 8 28.5999 8.6C28.5999 9.2 28.6999 9.8 28.9999 10.2C29.1999 10.7 29.5999 11 29.9999 11.3C30.3999 11.6 30.9999 11.7 31.5999 11.7C32.0999 11.7 32.4999 11.6 32.7999 11.5C33.0999 11.4 33.4999 11.2 33.6999 10.9C33.8999 10.6 34.0999 10.3 34.1999 10L32.8999 9.8C32.7999 10 32.6999 10.1 32.5999 10.2C32.4999 10.3 32.2999 10.4 32.1999 10.5C31.9999 10.6 31.7999 10.6 31.5999 10.6C31.2999 10.6 30.9999 10.5 30.7999 10.4C30.5999 10.3 30.3999 10.1 30.2999 9.8C30.1999 9.6 30.0999 9.3 30.0999 9H34.2999V8.6C34.2999 8.1 34.1999 7.6 34.0999 7.2C33.8999 6.8 33.6999 6.5 33.4999 6.3ZM30.6999 6.8C30.8999 6.7 31.1999 6.6 31.4999 6.6C31.7999 6.6 32.0999 6.7 32.2999 6.8C32.4999 6.9 32.6999 7.1 32.7999 7.4C32.8999 7.6 32.8999 7.8 32.8999 8H30.0999C30.0999 7.8 30.1999 7.6 30.2999 7.4C30.2999 7.2 30.4999 7 30.6999 6.8Z" fill="white"/>
<path d="M38.5999 8.2L37.5999 8C37.2999 7.9 37.1 7.8 37 7.7C36.9 7.6 36.7999 7.4 36.7999 7.3C36.7999 7.1 36.8999 6.9 37.0999 6.8C37.2999 6.7 37.4999 6.6 37.7999 6.6C38.0999 6.6 38.3999 6.7 38.5999 6.8C38.7999 7 38.9 7.1 39 7.4L40.2999 7.2C40.1999 6.9 40.1 6.6 39.9 6.3C39.6 6 39.3 5.9 39 5.7C38.7 5.6 38.2999 5.5 37.7999 5.5C37.2999 5.5 36.9 5.6 36.5 5.7C36.1 5.9 35.8999 6.1 35.5999 6.3C35.2999 6.5 35.2999 6.9 35.2999 7.3C35.2999 7.7 35.4 8.1 35.7 8.4C36 8.7 36.4 8.9 37 9L38 9.2C38.3 9.3 38.4999 9.3 38.5999 9.5C38.6999 9.6 38.7999 9.8 38.7999 9.9C38.7999 10.1 38.7 10.3 38.5 10.4C38.3 10.5 38 10.6 37.7 10.6C37.4 10.6 37.1 10.5 36.9 10.4C36.7 10.3 36.5 10 36.5 9.7L35.2 10C35.3 10.4 35.3999 10.7 35.5999 11C35.7999 11.3 36.1 11.5 36.5 11.6C36.9 11.7 37.3 11.8 37.7 11.8C38.2 11.8 38.7 11.7 39 11.6C39.3 11.5 39.7 11.2 39.9 10.9C40.1 10.6 40.2 10.3 40.2 9.9C40.2 9.5 40.0999 9.1 39.7999 8.9C39.5999 8.5 39.1999 8.3 38.5999 8.2Z" fill="white"/>
<path d="M46.9 5.6H45.2L43 8H42.9V3.5H41.5V11.6H42.9V9.6L43.4 9.1L45.3 11.6H47L44.5 8.2L46.9 5.6Z" fill="white"/>
<path d="M52.9999 7.7C52.6999 7.5 52.4999 7.4 52.1999 7.4C52.4999 7.3 52.6999 7.2 52.8999 7.1C53.0999 7 53.2999 6.8 53.3999 6.5C53.4999 6.3 53.5999 6 53.5999 5.7C53.5999 5.3 53.4999 4.9 53.2999 4.6C53.0999 4.3 52.7999 4 52.3999 3.8C51.9999 3.6 51.5999 3.5 50.9999 3.5H47.8999V11.6H51.1999C51.7999 11.6 52.2999 11.5 52.7999 11.3C53.2999 11.1 53.4999 10.8 53.6999 10.5C53.8999 10.2 53.9999 9.8 53.9999 9.3C53.9999 8.9 53.8999 8.5 53.7999 8.3C53.6999 8.1 53.2999 7.9 52.9999 7.7ZM49.2999 4.7H50.7999C51.1999 4.7 51.5999 4.8 51.7999 5C51.9999 5.2 52.0999 5.5 52.0999 5.8C52.0999 6 51.9999 6.2 51.8999 6.4C51.7999 6.6 51.5999 6.7 51.3999 6.8C51.1999 6.9 51.0999 7 50.7999 7H49.2999V4.7ZM52.0999 10.1C51.8999 10.3 51.4999 10.4 50.8999 10.4H49.2999V8H50.9999C51.2999 8 51.5999 8.1 51.7999 8.2C51.9999 8.3 52.1999 8.5 52.2999 8.7C52.3999 8.9 52.4999 9.1 52.4999 9.4C52.4999 9.6 52.2999 9.9 52.0999 10.1Z" fill="white"/>
<path d="M59.2999 5.9C58.8999 5.6 58.3999 5.5 57.7999 5.5C57.1999 5.5 56.6999 5.6 56.2999 5.9C55.8999 6.2 55.4999 6.5 55.2999 7C55.0999 7.5 54.8999 8 54.8999 8.6C54.8999 9.2 54.9999 9.8 55.2999 10.2C55.4999 10.7 55.8999 11 56.2999 11.3C56.6999 11.6 57.1999 11.7 57.7999 11.7C58.3999 11.7 58.8999 11.6 59.2999 11.3C59.6999 11 60.0999 10.7 60.2999 10.2C60.4999 9.7 60.6999 9.2 60.6999 8.6C60.6999 8 60.5999 7.4 60.2999 7C60.0999 6.5 59.6999 6.2 59.2999 5.9ZM59.0999 9.6C58.9999 9.9 58.7999 10.1 58.5999 10.3C58.3999 10.5 58.0999 10.6 57.7999 10.6C57.4999 10.6 57.1999 10.5 56.9999 10.3C56.7999 10.1 56.5999 9.9 56.4999 9.6C56.3999 9.3 56.2999 9 56.2999 8.6C56.2999 8.2 56.3999 7.9 56.4999 7.6C56.5999 7.3 56.7999 7.1 56.9999 6.9C57.1999 6.7 57.4999 6.6 57.7999 6.6C58.0999 6.6 58.3999 6.7 58.5999 6.9C58.7999 7.1 58.9999 7.3 59.0999 7.6C59.1999 7.9 59.2999 8.2 59.2999 8.6C59.1999 9 59.1999 9.3 59.0999 9.6Z" fill="white"/>
<path d="M65.9999 5.9C65.5999 5.6 65.0999 5.5 64.4999 5.5C63.8999 5.5 63.3999 5.6 62.9999 5.9C62.5999 6.2 62.1999 6.5 61.9999 7C61.7999 7.5 61.5999 8 61.5999 8.6C61.5999 9.2 61.6999 9.8 61.9999 10.2C62.1999 10.7 62.5999 11 62.9999 11.3C63.3999 11.6 63.8999 11.7 64.4999 11.7C65.0999 11.7 65.5999 11.6 65.9999 11.3C66.3999 11 66.7999 10.7 66.9999 10.2C67.1999 9.7 67.3999 9.2 67.3999 8.6C67.3999 8 67.2999 7.5 66.9999 7C66.7999 6.5 66.3999 6.2 65.9999 5.9ZM65.7999 9.6C65.6999 9.9 65.4999 10.1 65.2999 10.3C65.0999 10.5 64.7999 10.6 64.4999 10.6C64.1999 10.6 63.8999 10.5 63.6999 10.3C63.4999 10.1 63.2999 9.9 63.1999 9.6C63.0999 9.3 62.9999 9 62.9999 8.6C62.9999 8.2 63.0999 7.9 63.1999 7.6C63.2999 7.3 63.4999 7.1 63.6999 6.9C63.8999 6.7 64.1999 6.6 64.4999 6.6C64.7999 6.6 65.0999 6.7 65.2999 6.9C65.4999 7.1 65.6999 7.3 65.7999 7.6C65.8999 7.9 65.9999 8.2 65.9999 8.6C65.9999 9 65.8999 9.3 65.7999 9.6Z" fill="white"/>
<path d="M73.8999 5.6H72.2999L70.0999 8H69.9999V3.5H68.5999V11.6H69.9999V9.6L70.4999 9.1L72.3999 11.6H74.0999L71.5999 8.2L73.8999 5.6Z" fill="white"/>
<path d="M75.5998 3.2002C75.3998 3.2002 75.1998 3.3002 74.9998 3.4002C74.7998 3.5002 74.7998 3.7002 74.7998 4.0002C74.7998 4.2002 74.8998 4.4002 74.9998 4.6002C75.1998 4.8002 75.3998 4.8002 75.5998 4.8002C75.7998 4.8002 75.9998 4.7002 76.1998 4.6002C76.3998 4.4002 76.3998 4.3002 76.3998 4.0002C76.3998 3.8002 76.2998 3.6002 76.1998 3.4002C75.9998 3.3002 75.7998 3.2002 75.5998 3.2002Z" fill="white"/>
<path d="M76.2999 5.6001H74.8999V11.6001H76.2999V5.6001Z" fill="white"/>
<path d="M82 5.8C81.7 5.6 81.3 5.5 80.9 5.5C80.4 5.5 80 5.6 79.7 5.9C79.4 6.1 79.2 6.4 79.1 6.8V5.6H77.7V11.6H79.1V8.1C79.1 7.8 79.2 7.5 79.3 7.3C79.4 7.1 79.6 6.9 79.8 6.8C80 6.7 80.2 6.6 80.5 6.6C80.9 6.6 81.2 6.7 81.4 6.9C81.6 7.1 81.7 7.5 81.7 7.9V11.5H83V7.8C83 7.3 82.9 6.9 82.7 6.5C82.5 6.1 82.3 6 82 5.8Z" fill="white"/>
<path d="M88.5 5.6V6.6H88.4C88.3 6.4 88.2 6.3 88 6.1C87.9 5.9 87.7 5.8 87.4 5.7C87.1 5.6 87 5.5 86.7 5.5C86.2 5.5 85.8 5.6 85.4 5.9C85 6.1 84.7 6.5 84.5 7C84.3 7.5 84.2 8 84.2 8.7C84.2 9.3 84.3 9.9 84.5 10.3C84.7 10.7 85 11.1 85.4 11.3C85.8 11.5 86.2 11.6 86.7 11.6C87 11.6 87.3 11.6 87.5 11.5C87.7 11.4 87.9 11.3 88.1 11.1C88.3 10.9 88.4 10.8 88.4 10.6H88.5V11.7C88.5 12.1 88.4 12.5 88.1 12.7C87.8 12.9 87.5 13 87.1 13C86.8 13 86.6 13 86.4 12.9C86.2 12.8 86.1 12.7 85.9 12.6C85.8 12.5 85.7 12.4 85.6 12.2L84.4 12.5C84.5 12.8 84.7 13.1 84.9 13.3C85.1 13.5 85.4 13.7 85.8 13.8C86.2 13.9 86.6 14 87.1 14C87.6 14 88.1 13.9 88.6 13.7C89 13.5 89.4 13.3 89.6 12.9C89.8 12.5 90 12.1 90 11.5V5.5H88.5V5.6ZM88.4 9.6C88.3 9.9 88.1 10.1 87.9 10.2C87.7 10.3 87.4 10.4 87.1 10.4C86.8 10.4 86.5 10.3 86.3 10.2C86.1 10 85.9 9.8 85.8 9.6C85.7 9.3 85.6 9 85.6 8.6C85.6 8.2 85.7 7.9 85.8 7.6C85.9 7.3 86.1 7.1 86.3 6.9C86.5 6.7 86.8 6.7 87.1 6.7C87.4 6.7 87.7 6.8 87.9 6.9C88.1 7 88.3 7.3 88.4 7.6C88.5 7.9 88.6 8.2 88.6 8.6C88.5 9 88.5 9.3 88.4 9.6Z" fill="white"/>
<path d="M9.1 5.40015V3.90015C9.1 3.60015 8.8 3.30015 8.5 3.40015C8 3.50015 7.3 3.60015 6.1 3.60015C4.3 3.60015 1.6 1.20015 0.5 0.100146C0.3 -0.0998544 0 0.000145584 0 0.300146V5.50015C0 5.80015 0.1 6.10015 0.3 6.40015C0.7 7.10015 1.8 8.40015 3.9 9.30015V8.80015C3.9 8.80015 5.8 6.30015 9.1 5.40015Z" fill="white"/>
<path d="M12.7999 5.30028C11.3999 5.00028 10.1999 5.10028 9.0999 5.40028V9.30028C9.0999 9.90028 8.5999 10.3003 7.9999 10.3003C6.2999 10.2003 4.9999 9.90028 3.8999 9.40028V14.7003C3.8999 15.0003 4.2999 15.1003 4.3999 14.9003C5.9999 12.9003 8.1999 11.7003 10.4999 11.7003C11.4999 11.7003 12.2999 11.8003 12.7999 12.0003C13.2999 12.1003 13.7999 11.8003 13.7999 11.2003V6.50028C13.7999 5.90028 13.3999 5.40028 12.7999 5.30028Z" fill="white"/>
</g>
<defs>
<clipPath id="clip0_351_14">
<rect width="89.9" height="15" fill="white"/>
</clipPath>
</defs>
</svg>
